<?xml version="1.0" encoding="UTF-8" standalone="no"?> <svg xmlns="http://www.w3.org/2000/svg" xmlns:xlink="http://www.w3.org/1999/xlink" xmlns:serif="http://www.serif.com/" width="100%" height="100%" viewBox="0 0 1146 299" version="1.1" xml:space="preserve" style="fill-rule:evenodd;clip-rule:evenodd;stroke-linejoin:round;stroke-miterlimit:2;"><g id="Circles"><path d="M193.01,11.783c58.621,15.292 101.939,68.636 101.939,132.018c-0,75.293 -61.129,136.422 -136.422,136.422c-53.27,-0 -99.45,-30.598 -121.909,-75.168c23.393,30.754 60.369,50.62 101.949,50.62c70.653,0 128.015,-57.361 128.015,-128.015c-0,-51.189 -30.109,-95.4 -73.572,-115.877Z" style="fill:#066bae;"></path><path d="M136.841,17.058c1.724,-0.078 3.453,-0.117 5.192,-0.117c62.539,0 113.313,50.774 113.313,113.314c0,62.539 -50.774,113.313 -113.313,113.313c-62.54,-0 -113.314,-50.774 -113.314,-113.313c0,-1.739 0.04,-3.469 0.118,-5.192c2.582,54.647 47.77,98.226 103.056,98.226c56.944,-0 103.174,-46.231 103.174,-103.174c0,-55.286 -43.579,-100.474 -98.226,-103.057Z" style="fill:#3b3e45;"></path><path d="M136.199,214.844c-1.442,0.064 -2.89,0.097 -4.345,0.096c-52.336,-0.021 -94.809,-42.529 -94.787,-94.866c0.021,-52.336 42.529,-94.809 94.865,-94.787c52.337,0.021 94.81,42.529 94.788,94.865c-0.001,1.455 -0.034,2.903 -0.1,4.345c-2.142,-45.732 -39.943,-82.217 -86.209,-82.236c-47.654,-0.02 -86.358,38.652 -86.377,86.306c-0.019,46.266 36.434,84.097 82.165,86.277Z" style="fill:#3b3e45;"></path></g><g id="Txt"><g><path d="M351.705,97.486l-9.786,0l0,21.825l-12.284,-0l0,-59.618l22.152,-0c7.043,-0 12.475,1.569 16.297,4.708c3.822,3.14 5.733,7.576 5.733,13.308c-0,4.067 -0.881,7.459 -2.642,10.175c-1.76,2.716 -4.429,4.88 -8.005,6.49l12.899,24.363l-0,0.574l-13.185,-0l-11.179,-21.825Zm-9.786,-9.95l9.909,0c3.085,0 5.473,-0.785 7.166,-2.354c1.692,-1.57 2.539,-3.733 2.539,-6.49c-0,-2.812 -0.799,-5.023 -2.396,-6.634c-1.597,-1.61 -4.047,-2.415 -7.35,-2.415l-9.868,-0l0,17.893Z" style="fill:#066bae;fill-rule:nonzero;"></path><path d="M419.021,93.473l-23.585,0l0,15.97l27.68,-0l0,9.868l-39.964,-0l0,-59.618l39.882,-0l0,9.95l-27.598,-0l0,14.208l23.585,0l0,9.622Z" style="fill:#066bae;fill-rule:nonzero;"></path><path d="M461.237,103.669c0,-2.32 -0.819,-4.101 -2.457,-5.343c-1.638,-1.242 -4.586,-2.553 -8.844,-3.931c-4.259,-1.379 -7.63,-2.737 -10.114,-4.074c-6.77,-3.658 -10.155,-8.586 -10.155,-14.782c0,-3.221 0.908,-6.094 2.723,-8.619c1.816,-2.525 4.423,-4.498 7.821,-5.917c3.399,-1.42 7.214,-2.129 11.445,-2.129c4.258,-0 8.052,0.771 11.383,2.313c3.33,1.543 5.917,3.72 7.759,6.531c1.843,2.812 2.764,6.006 2.764,9.582l-12.284,-0c0,-2.73 -0.86,-4.853 -2.58,-6.368c-1.719,-1.515 -4.135,-2.272 -7.247,-2.272c-3.003,-0 -5.337,0.635 -7.002,1.904c-1.665,1.269 -2.498,2.941 -2.498,5.016c0,1.938 0.976,3.562 2.928,4.872c1.952,1.311 4.825,2.539 8.619,3.686c6.988,2.102 12.079,4.709 15.273,7.82c3.194,3.112 4.791,6.989 4.791,11.629c0,5.159 -1.952,9.206 -5.855,12.141c-3.904,2.934 -9.159,4.402 -15.765,4.402c-4.586,-0 -8.762,-0.84 -12.529,-2.519c-3.767,-1.678 -6.64,-3.978 -8.62,-6.899c-1.979,-2.921 -2.968,-6.306 -2.968,-10.155l12.325,0c-0,6.579 3.931,9.868 11.792,9.868c2.921,0 5.2,-0.593 6.838,-1.781c1.638,-1.187 2.457,-2.846 2.457,-4.975Z" style="fill:#066bae;fill-rule:nonzero;"></path><path d="M517.743,93.473l-23.585,0l0,15.97l27.68,-0l-0,9.868l-39.964,-0l0,-59.618l39.882,-0l-0,9.95l-27.598,-0l0,14.208l23.585,0l0,9.622Z" style="fill:#066bae;fill-rule:nonzero;"></path><path d="M541.328,109.443l26.083,-0l0,9.868l-38.367,-0l0,-59.618l12.284,-0l0,49.75Z" style="fill:#066bae;fill-rule:nonzero;"></path><path d="M586.738,109.443l26.083,-0l-0,9.868l-38.367,-0l-0,-59.618l12.284,-0l-0,49.75Z" style="fill:#066bae;fill-rule:nonzero;"></path><path d="M655.733,93.473l-23.586,0l0,15.97l27.68,-0l0,9.868l-39.963,-0l-0,-59.618l39.881,-0l0,9.95l-27.598,-0l0,14.208l23.586,0l-0,9.622Z" style="fill:#066bae;fill-rule:nonzero;"></path><path d="M689.104,97.486l-9.786,0l-0,21.825l-12.284,-0l-0,-59.618l22.152,-0c7.043,-0 12.475,1.569 16.297,4.708c3.821,3.14 5.732,7.576 5.732,13.308c0,4.067 -0.88,7.459 -2.641,10.175c-1.761,2.716 -4.429,4.88 -8.005,6.49l12.898,24.363l0,0.574l-13.185,-0l-11.178,-21.825Zm-9.786,-9.95l9.909,0c3.084,0 5.473,-0.785 7.165,-2.354c1.693,-1.57 2.539,-3.733 2.539,-6.49c0,-2.812 -0.798,-5.023 -2.395,-6.634c-1.597,-1.61 -4.047,-2.415 -7.35,-2.415l-9.868,-0l-0,17.893Z" style="fill:#066bae;fill-rule:nonzero;"></path><rect x="722.721" y="59.693" width="7.862" height="59.618" style="fill:#3b3e45;fill-rule:nonzero;"></rect><path d="M790.774,119.311l-7.903,-0l-30.013,-45.942l-0,45.942l-7.903,-0l-0,-59.618l7.903,-0l30.095,46.146l0,-46.146l7.821,-0l-0,59.618Z" style="fill:#3b3e45;fill-rule:nonzero;"></path><path d="M844.741,66.121l-19.163,0l0,53.19l-7.82,-0l-0,-53.19l-19.122,0l-0,-6.428l46.105,-0l0,6.428Z" style="fill:#3b3e45;fill-rule:nonzero;"></path><path d="M887.285,91.754l-25.838,-0l0,21.128l30.014,0l0,6.429l-37.875,-0l-0,-59.618l37.466,-0l-0,6.428l-29.605,0l0,19.204l25.838,0l-0,6.429Z" style="fill:#3b3e45;fill-rule:nonzero;"></path><path d="M923.113,95.193l-14.004,0l0,24.118l-7.903,-0l0,-59.618l19.737,-0c6.715,-0 11.881,1.528 15.498,4.586c3.617,3.057 5.425,7.507 5.425,13.348c0,3.713 -1.003,6.947 -3.009,9.704c-2.007,2.758 -4.798,4.819 -8.374,6.183l14.004,25.305l-0,0.492l-8.435,-0l-12.939,-24.118Zm-14.004,-6.428l12.079,-0c3.904,-0 7.009,-1.012 9.316,-3.036c2.306,-2.024 3.46,-4.731 3.46,-8.122c-0,-3.692 -1.099,-6.522 -3.297,-8.491c-2.197,-1.969 -5.37,-2.967 -9.52,-2.995l-12.038,0l0,22.644Z" style="fill:#3b3e45;fill-rule:nonzero;"></path><path d="M985.761,92.982l-25.018,0l-0,26.329l-7.862,-0l-0,-59.618l36.933,-0l0,6.428l-29.071,0l-0,20.433l25.018,-0l-0,6.428Z" style="fill:#3b3e45;fill-rule:nonzero;"></path><path d="M1025.19,103.71l-24.977,0l-5.61,15.601l-8.107,-0l22.766,-59.618l6.879,-0l22.807,59.618l-8.066,-0l-5.692,-15.601Zm-22.602,-6.429l20.268,0l-10.154,-27.884l-10.114,27.884Z" style="fill:#3b3e45;fill-rule:nonzero;"></path><path d="M1090.38,100.393c-0.737,6.306 -3.064,11.172 -6.981,14.598c-3.918,3.426 -9.125,5.139 -15.622,5.139c-7.042,-0 -12.686,-2.525 -16.931,-7.576c-4.245,-5.05 -6.367,-11.806 -6.367,-20.268l-0,-5.732c-0,-5.542 0.989,-10.415 2.969,-14.618c1.979,-4.204 4.783,-7.432 8.414,-9.684c3.631,-2.252 7.834,-3.378 12.612,-3.378c6.333,-0 11.41,1.767 15.232,5.302c3.821,3.535 6.046,8.428 6.674,14.68l-7.903,-0c-0.682,-4.765 -2.163,-8.215 -4.442,-10.35c-2.28,-2.136 -5.467,-3.204 -9.561,-3.204c-5.023,0 -8.961,1.858 -11.814,5.574c-2.852,3.716 -4.278,9.002 -4.278,15.859l-0,5.779c-0,6.475 1.351,11.625 4.053,15.45c2.703,3.825 6.483,5.737 11.342,5.737c4.368,-0 7.719,-0.99 10.053,-2.969c2.334,-1.979 3.883,-5.425 4.647,-10.339l7.903,0Z" style="fill:#3b3e45;fill-rule:nonzero;"></path><path d="M1134.81,91.754l-25.837,-0l-0,21.128l30.013,0l0,6.429l-37.875,-0l-0,-59.618l37.466,-0l-0,6.428l-29.604,0l-0,19.204l25.837,0l-0,6.429Z" style="fill:#3b3e45;fill-rule:nonzero;"></path></g><g><path d="M340.176,163.465c-4.368,-1.256 -7.547,-2.799 -9.537,-4.63c-1.989,-1.83 -2.984,-4.089 -2.984,-6.778c-0,-3.042 1.216,-5.557 3.648,-7.547c2.431,-1.99 5.593,-2.985 9.484,-2.985c2.652,0 5.018,0.513 7.096,1.539c2.078,1.026 3.688,2.441 4.828,4.245c1.141,1.804 1.711,3.776 1.711,5.916l-5.12,-0c0,-2.343 -0.742,-4.185 -2.228,-5.525c-1.486,-1.34 -3.581,-2.01 -6.287,-2.01c-2.512,0 -4.47,0.554 -5.876,1.662c-1.407,1.107 -2.11,2.644 -2.11,4.61c0,1.577 0.668,2.911 2.003,4c1.336,1.09 3.608,2.087 6.818,2.99c3.21,0.904 5.722,1.9 7.534,2.987c1.813,1.088 3.157,2.357 4.033,3.807c0.875,1.45 1.313,3.157 1.313,5.12c-0,3.131 -1.22,5.637 -3.661,7.521c-2.441,1.884 -5.704,2.825 -9.789,2.825c-2.653,0 -5.129,-0.508 -7.428,-1.525c-2.299,-1.017 -4.072,-2.41 -5.319,-4.178c-1.247,-1.769 -1.87,-3.776 -1.87,-6.022l5.12,-0c-0,2.334 0.862,4.178 2.586,5.531c1.725,1.353 4.028,2.029 6.911,2.029c2.688,0 4.749,-0.548 6.181,-1.644c1.433,-1.097 2.149,-2.591 2.149,-4.484c-0,-1.892 -0.663,-3.356 -1.99,-4.39c-1.326,-1.035 -3.731,-2.056 -7.216,-3.064Z" style="fill:#3b3e45;fill-rule:nonzero;"></path><path d="M365.591,180.682l-4.908,-0l0,-28.704l4.908,-0l-0,28.704Zm-5.306,-36.318c0,-0.796 0.243,-1.468 0.73,-2.016c0.486,-0.548 1.207,-0.823 2.162,-0.823c0.955,0 1.68,0.275 2.175,0.823c0.495,0.548 0.743,1.22 0.743,2.016c-0,0.796 -0.248,1.459 -0.743,1.99c-0.495,0.53 -1.22,0.795 -2.175,0.795c-0.955,0 -1.676,-0.265 -2.162,-0.795c-0.487,-0.531 -0.73,-1.194 -0.73,-1.99Z" style="fill:#3b3e45;fill-rule:nonzero;"></path><path d="M378.059,151.978l0.133,3.183c2.105,-2.476 4.943,-3.714 8.516,-3.714c4.014,0 6.747,1.539 8.197,4.616c0.955,-1.379 2.198,-2.494 3.727,-3.342c1.53,-0.849 3.339,-1.274 5.425,-1.274c6.297,0 9.498,3.334 9.604,10.001l-0,19.234l-4.908,-0l0,-18.942c0,-2.051 -0.469,-3.586 -1.406,-4.602c-0.937,-1.017 -2.511,-1.526 -4.722,-1.526c-1.822,0 -3.334,0.544 -4.536,1.632c-1.203,1.087 -1.902,2.551 -2.096,4.39l-0,19.048l-4.935,-0l0,-18.809c0,-4.174 -2.042,-6.261 -6.128,-6.261c-3.219,0 -5.42,1.371 -6.605,4.112l-0,20.958l-4.908,-0l-0,-28.704l4.642,-0Z" style="fill:#3b3e45;fill-rule:nonzero;"></path><path d="M445.31,166.648c-0,4.368 -1,7.888 -2.998,10.558c-1.999,2.671 -4.705,4.006 -8.118,4.006c-3.484,0 -6.225,-1.105 -8.224,-3.316l0,13.822l-4.908,-0l0,-39.74l4.484,-0l0.238,3.183c1.999,-2.476 4.776,-3.714 8.33,-3.714c3.449,0 6.177,1.3 8.185,3.9c2.007,2.6 3.011,6.216 3.011,10.85l-0,0.451Zm-4.908,-0.557c-0,-3.237 -0.69,-5.792 -2.069,-7.667c-1.38,-1.875 -3.272,-2.812 -5.678,-2.812c-2.971,0 -5.199,1.318 -6.685,3.953l0,13.715c1.468,2.618 3.714,3.926 6.738,3.926c2.353,0 4.223,-0.932 5.611,-2.798c1.389,-1.866 2.083,-4.638 2.083,-8.317Z" style="fill:#3b3e45;fill-rule:nonzero;"></path><rect x="451.968" y="139.934" width="4.908" height="40.748" style="fill:#3b3e45;fill-rule:nonzero;"></rect><path d="M476.64,181.212c-3.891,0 -7.057,-1.277 -9.497,-3.833c-2.441,-2.556 -3.661,-5.973 -3.661,-10.253l-0,-0.902c-0,-2.848 0.544,-5.39 1.631,-7.627c1.088,-2.238 2.609,-3.989 4.563,-5.253c1.954,-1.265 4.072,-1.897 6.354,-1.897c3.731,0 6.632,1.229 8.701,3.688c2.069,2.458 3.104,5.977 3.104,10.558l0,2.043l-19.446,-0c0.071,2.829 0.898,5.115 2.481,6.857c1.583,1.742 3.595,2.613 6.035,2.613c1.733,0 3.201,-0.353 4.404,-1.061c1.203,-0.707 2.255,-1.644 3.157,-2.812l2.998,2.335c-2.406,3.696 -6.014,5.544 -10.824,5.544Zm-0.61,-25.733c-1.981,0 -3.644,0.721 -4.988,2.163c-1.344,1.441 -2.175,3.462 -2.493,6.061l14.378,0l0,-0.371c-0.141,-2.494 -0.813,-4.426 -2.016,-5.797c-1.203,-1.37 -2.83,-2.056 -4.881,-2.056Z" style="fill:#3b3e45;fill-rule:nonzero;"></path><path d="M507.732,180.682l-0,-38.626l10.903,-0c3.36,-0 6.331,0.743 8.913,2.228c2.583,1.486 4.577,3.599 5.983,6.341c1.406,2.741 2.118,5.889 2.135,9.444l0,2.467c0,3.643 -0.703,6.836 -2.109,9.577c-1.406,2.741 -3.413,4.846 -6.022,6.314c-2.608,1.468 -5.646,2.219 -9.112,2.255l-10.691,-0Zm5.093,-34.461l0,30.296l5.359,-0c3.926,-0 6.981,-1.222 9.165,-3.664c2.185,-2.443 3.277,-5.921 3.277,-10.435l-0,-2.257c-0,-4.39 -1.03,-7.802 -3.091,-10.236c-2.06,-2.434 -4.983,-3.669 -8.768,-3.704l-5.942,-0Z" style="fill:#3b3e45;fill-rule:nonzero;"></path><path d="M541.29,166.064c0,-2.812 0.553,-5.341 1.658,-7.587c1.106,-2.246 2.644,-3.979 4.616,-5.199c1.972,-1.221 4.223,-1.831 6.752,-1.831c3.908,0 7.07,1.353 9.484,4.059c2.414,2.706 3.621,6.305 3.621,10.797l0,0.345c0,2.794 -0.535,5.301 -1.605,7.521c-1.07,2.22 -2.6,3.948 -4.589,5.186c-1.99,1.238 -4.276,1.857 -6.858,1.857c-3.891,0 -7.043,-1.353 -9.458,-4.059c-2.414,-2.706 -3.621,-6.287 -3.621,-10.744l0,-0.345Zm4.935,0.584c-0,3.184 0.738,5.739 2.215,7.667c1.477,1.928 3.453,2.891 5.929,2.891c2.494,0 4.474,-0.977 5.942,-2.931c1.468,-1.954 2.202,-4.691 2.202,-8.211c0,-3.148 -0.747,-5.699 -2.241,-7.653c-1.495,-1.954 -3.48,-2.932 -5.956,-2.932c-2.423,0 -4.377,0.964 -5.863,2.892c-1.486,1.928 -2.228,4.687 -2.228,8.277Z" style="fill:#3b3e45;fill-rule:nonzero;"></path><path d="M578.192,151.978l0.132,3.183c2.105,-2.476 4.943,-3.714 8.516,-3.714c4.015,0 6.747,1.539 8.197,4.616c0.955,-1.379 2.198,-2.494 3.728,-3.342c1.529,-0.849 3.338,-1.274 5.425,-1.274c6.296,0 9.497,3.334 9.603,10.001l0,19.234l-4.908,-0l0,-18.942c0,-2.051 -0.468,-3.586 -1.406,-4.602c-0.937,-1.017 -2.511,-1.526 -4.722,-1.526c-1.821,0 -3.334,0.544 -4.536,1.632c-1.203,1.087 -1.901,2.551 -2.096,4.39l0,19.048l-4.934,-0l-0,-18.809c-0,-4.174 -2.043,-6.261 -6.128,-6.261c-3.219,0 -5.421,1.371 -6.606,4.112l-0,20.958l-4.908,-0l0,-28.704l4.643,-0Z" style="fill:#3b3e45;fill-rule:nonzero;"></path><path d="M638.916,180.682c-0.283,-0.566 -0.513,-1.574 -0.69,-3.025c-2.281,2.37 -5.005,3.555 -8.171,3.555c-2.83,0 -5.151,-0.8 -6.964,-2.401c-1.812,-1.6 -2.719,-3.63 -2.719,-6.088c0,-2.989 1.137,-5.31 3.409,-6.964c2.273,-1.653 5.469,-2.48 9.59,-2.48l4.775,-0l0,-2.255c0,-1.716 -0.512,-3.082 -1.538,-4.099c-1.026,-1.017 -2.538,-1.525 -4.537,-1.525c-1.751,-0 -3.218,0.442 -4.403,1.326c-1.185,0.885 -1.778,1.955 -1.778,3.21l-4.934,0c-0,-1.432 0.508,-2.816 1.525,-4.151c1.017,-1.336 2.397,-2.392 4.139,-3.171c1.742,-0.778 3.656,-1.167 5.743,-1.167c3.307,0 5.898,0.827 7.773,2.481c1.875,1.653 2.847,3.93 2.918,6.831l0,13.211c0,2.635 0.336,4.731 1.008,6.287l0,0.425l-5.146,-0Zm-8.145,-3.741c1.539,0 2.998,-0.398 4.378,-1.194c1.379,-0.795 2.378,-1.83 2.997,-3.103l0,-5.89l-3.846,0c-6.013,0 -9.02,1.76 -9.02,5.279c0,1.539 0.513,2.742 1.539,3.608c1.025,0.867 2.343,1.3 3.952,1.3Z" style="fill:#3b3e45;fill-rule:nonzero;"></path><path d="M656.08,180.682l-4.908,-0l0,-28.704l4.908,-0l-0,28.704Zm-5.306,-36.318c0,-0.796 0.243,-1.468 0.73,-2.016c0.486,-0.548 1.207,-0.823 2.162,-0.823c0.955,0 1.68,0.275 2.175,0.823c0.495,0.548 0.743,1.22 0.743,2.016c-0,0.796 -0.248,1.459 -0.743,1.99c-0.495,0.53 -1.22,0.795 -2.175,0.795c-0.955,0 -1.676,-0.265 -2.162,-0.795c-0.487,-0.531 -0.73,-1.194 -0.73,-1.99Z" style="fill:#3b3e45;fill-rule:nonzero;"></path><path d="M668.575,151.978l0.159,3.608c2.193,-2.759 5.058,-4.139 8.595,-4.139c6.066,0 9.126,3.422 9.179,10.267l0,18.968l-4.908,-0l0,-18.995c-0.017,-2.069 -0.49,-3.599 -1.419,-4.589c-0.928,-0.991 -2.374,-1.486 -4.337,-1.486c-1.592,0 -2.989,0.425 -4.192,1.274c-1.202,0.848 -2.14,1.963 -2.812,3.342l0,20.454l-4.908,-0l0,-28.704l4.643,-0Z" style="fill:#3b3e45;fill-rule:nonzero;"></path><path d="M714.708,142.056l12.628,31.516l12.627,-31.516l6.606,-0l0,38.626l-5.093,-0l-0,-15.042l0.477,-16.236l-12.681,31.278l-3.899,-0l-12.654,-31.198l0.504,16.156l-0,15.042l-5.094,-0l0,-38.626l6.579,-0Z" style="fill:#3b3e45;fill-rule:nonzero;"></path><path d="M772.514,180.682c-0.283,-0.566 -0.513,-1.574 -0.69,-3.025c-2.281,2.37 -5.005,3.555 -8.17,3.555c-2.83,0 -5.151,-0.8 -6.964,-2.401c-1.813,-1.6 -2.719,-3.63 -2.719,-6.088c-0,-2.989 1.136,-5.31 3.409,-6.964c2.272,-1.653 5.469,-2.48 9.59,-2.48l4.775,-0l-0,-2.255c-0,-1.716 -0.513,-3.082 -1.539,-4.099c-1.026,-1.017 -2.538,-1.525 -4.536,-1.525c-1.751,-0 -3.219,0.442 -4.404,1.326c-1.185,0.885 -1.777,1.955 -1.777,3.21l-4.935,0c0,-1.432 0.509,-2.816 1.526,-4.151c1.017,-1.336 2.396,-2.392 4.138,-3.171c1.742,-0.778 3.657,-1.167 5.744,-1.167c3.307,0 5.898,0.827 7.772,2.481c1.875,1.653 2.848,3.93 2.919,6.831l-0,13.211c-0,2.635 0.336,4.731 1.008,6.287l-0,0.425l-5.147,-0Zm-8.144,-3.741c1.538,0 2.998,-0.398 4.377,-1.194c1.38,-0.795 2.379,-1.83 2.998,-3.103l-0,-5.89l-3.847,0c-6.013,0 -9.02,1.76 -9.02,5.279c0,1.539 0.513,2.742 1.539,3.608c1.026,0.867 2.343,1.3 3.953,1.3Z" style="fill:#3b3e45;fill-rule:nonzero;"></path><path d="M788.988,151.978l0.16,3.608c2.193,-2.759 5.058,-4.139 8.595,-4.139c6.066,0 9.126,3.422 9.179,10.267l-0,18.968l-4.908,-0l-0,-18.995c-0.018,-2.069 -0.491,-3.599 -1.419,-4.589c-0.929,-0.991 -2.375,-1.486 -4.338,-1.486c-1.591,0 -2.989,0.425 -4.191,1.274c-1.203,0.848 -2.14,1.963 -2.812,3.342l-0,20.454l-4.908,-0l-0,-28.704l4.642,-0Z" style="fill:#3b3e45;fill-rule:nonzero;"></path><path d="M832.044,180.682c-0.283,-0.566 -0.512,-1.574 -0.689,-3.025c-2.282,2.37 -5.005,3.555 -8.171,3.555c-2.83,0 -5.151,-0.8 -6.964,-2.401c-1.813,-1.6 -2.719,-3.63 -2.719,-6.088c-0,-2.989 1.136,-5.31 3.409,-6.964c2.272,-1.653 5.469,-2.48 9.59,-2.48l4.775,-0l0,-2.255c0,-1.716 -0.513,-3.082 -1.539,-4.099c-1.025,-1.017 -2.537,-1.525 -4.536,-1.525c-1.751,-0 -3.219,0.442 -4.404,1.326c-1.185,0.885 -1.777,1.955 -1.777,3.21l-4.934,0c-0,-1.432 0.508,-2.816 1.525,-4.151c1.017,-1.336 2.396,-2.392 4.138,-3.171c1.742,-0.778 3.657,-1.167 5.744,-1.167c3.307,0 5.898,0.827 7.773,2.481c1.874,1.653 2.847,3.93 2.918,6.831l-0,13.211c-0,2.635 0.336,4.731 1.008,6.287l0,0.425l-5.147,-0Zm-8.144,-3.741c1.539,0 2.998,-0.398 4.377,-1.194c1.38,-0.795 2.379,-1.83 2.998,-3.103l0,-5.89l-3.847,0c-6.013,0 -9.019,1.76 -9.019,5.279c-0,1.539 0.513,2.742 1.538,3.608c1.026,0.867 2.344,1.3 3.953,1.3Z" style="fill:#3b3e45;fill-rule:nonzero;"></path><path d="M842.709,166.091c-0,-4.475 1.035,-8.034 3.104,-10.678c2.069,-2.644 4.81,-3.966 8.224,-3.966c3.501,0 6.234,1.238 8.197,3.714l0.239,-3.183l4.483,-0l0,28.014c0,3.714 -1.101,6.641 -3.303,8.781c-2.202,2.14 -5.159,3.21 -8.873,3.21c-2.07,-0 -4.095,-0.442 -6.076,-1.326c-1.98,-0.885 -3.492,-2.096 -4.536,-3.635l2.547,-2.945c2.104,2.6 4.678,3.9 7.72,3.9c2.387,0 4.249,-0.672 5.584,-2.016c1.335,-1.344 2.003,-3.237 2.003,-5.677l-0,-2.467c-1.963,2.263 -4.643,3.395 -8.038,3.395c-3.361,0 -6.08,-1.353 -8.158,-4.059c-2.078,-2.706 -3.117,-6.393 -3.117,-11.062Zm4.934,0.557c0,3.237 0.664,5.779 1.99,7.627c1.326,1.848 3.183,2.772 5.571,2.772c3.095,0 5.368,-1.406 6.818,-4.218l-0,-13.105c-1.503,-2.741 -3.758,-4.112 -6.765,-4.112c-2.388,0 -4.253,0.929 -5.598,2.786c-1.344,1.857 -2.016,4.607 -2.016,8.25Z" style="fill:#3b3e45;fill-rule:nonzero;"></path><path d="M886.269,181.212c-3.891,0 -7.057,-1.277 -9.497,-3.833c-2.441,-2.556 -3.661,-5.973 -3.661,-10.253l-0,-0.902c-0,-2.848 0.544,-5.39 1.631,-7.627c1.088,-2.238 2.609,-3.989 4.563,-5.253c1.955,-1.265 4.072,-1.897 6.354,-1.897c3.732,0 6.632,1.229 8.701,3.688c2.07,2.458 3.104,5.977 3.104,10.558l0,2.043l-19.445,-0c0.07,2.829 0.897,5.115 2.48,6.857c1.583,1.742 3.595,2.613 6.035,2.613c1.734,0 3.201,-0.353 4.404,-1.061c1.203,-0.707 2.255,-1.644 3.157,-2.812l2.998,2.335c-2.406,3.696 -6.013,5.544 -10.824,5.544Zm-0.61,-25.733c-1.981,0 -3.643,0.721 -4.988,2.163c-1.344,1.441 -2.175,3.462 -2.493,6.061l14.378,0l0,-0.371c-0.141,-2.494 -0.813,-4.426 -2.016,-5.797c-1.202,-1.37 -2.83,-2.056 -4.881,-2.056Z" style="fill:#3b3e45;fill-rule:nonzero;"></path><path d="M907.757,151.978l0.133,3.183c2.105,-2.476 4.943,-3.714 8.516,-3.714c4.014,0 6.747,1.539 8.197,4.616c0.955,-1.379 2.197,-2.494 3.727,-3.342c1.53,-0.849 3.338,-1.274 5.425,-1.274c6.296,0 9.498,3.334 9.604,10.001l-0,19.234l-4.908,-0l-0,-18.942c-0,-2.051 -0.469,-3.586 -1.406,-4.602c-0.937,-1.017 -2.511,-1.526 -4.722,-1.526c-1.822,0 -3.334,0.544 -4.537,1.632c-1.202,1.087 -1.901,2.551 -2.095,4.39l-0,19.048l-4.935,-0l0,-18.809c0,-4.174 -2.042,-6.261 -6.128,-6.261c-3.219,0 -5.421,1.371 -6.605,4.112l-0,20.958l-4.908,-0l-0,-28.704l4.642,-0Z" style="fill:#3b3e45;fill-rule:nonzero;"></path><path d="M962.672,181.212c-3.891,0 -7.057,-1.277 -9.498,-3.833c-2.44,-2.556 -3.661,-5.973 -3.661,-10.253l0,-0.902c0,-2.848 0.544,-5.39 1.632,-7.627c1.088,-2.238 2.609,-3.989 4.563,-5.253c1.954,-1.265 4.072,-1.897 6.353,-1.897c3.732,0 6.633,1.229 8.702,3.688c2.069,2.458 3.104,5.977 3.104,10.558l-0,2.043l-19.446,-0c0.071,2.829 0.898,5.115 2.481,6.857c1.582,1.742 3.594,2.613 6.035,2.613c1.733,0 3.201,-0.353 4.404,-1.061c1.202,-0.707 2.255,-1.644 3.157,-2.812l2.997,2.335c-2.405,3.696 -6.013,5.544 -10.823,5.544Zm-0.611,-25.733c-1.98,0 -3.643,0.721 -4.987,2.163c-1.344,1.441 -2.175,3.462 -2.494,6.061l14.379,0l-0,-0.371c-0.142,-2.494 -0.814,-4.426 -2.016,-5.797c-1.203,-1.37 -2.83,-2.056 -4.882,-2.056Z" style="fill:#3b3e45;fill-rule:nonzero;"></path><path d="M984.186,151.978l0.16,3.608c2.193,-2.759 5.058,-4.139 8.595,-4.139c6.066,0 9.126,3.422 9.179,10.267l-0,18.968l-4.908,-0l-0,-18.995c-0.018,-2.069 -0.491,-3.599 -1.419,-4.589c-0.929,-0.991 -2.375,-1.486 -4.338,-1.486c-1.592,0 -2.989,0.425 -4.191,1.274c-1.203,0.848 -2.14,1.963 -2.812,3.342l-0,20.454l-4.908,-0l-0,-28.704l4.642,-0Z" style="fill:#3b3e45;fill-rule:nonzero;"></path><path d="M1016.18,145.027l-0,6.951l5.359,-0l-0,3.793l-5.359,0l-0,17.823c-0,1.151 0.239,2.015 0.716,2.59c0.478,0.576 1.291,0.863 2.441,0.863c0.566,0 1.344,-0.106 2.334,-0.318l0,3.956c-1.291,0.352 -2.546,0.527 -3.767,0.527c-2.193,0 -3.846,-0.663 -4.961,-1.989c-1.114,-1.327 -1.671,-3.21 -1.671,-5.651l0,-17.801l-5.226,0l-0,-3.793l5.226,-0l0,-6.951l4.908,0Z" style="fill:#3b3e45;fill-rule:nonzero;"></path></g></g></svg> 